HIERARCHY
ROOT Hips
{
	OFFSET -0.179506 -22.333345 2.821913
	CHANNELS 6 Xposition Yposition Zposition Zrotation Yrotation Xrotation 
	JOINT LeftUpLeg
	{
		OFFSET 6.951974 -9.140623 -0.681533
		CHANNELS 3 Zrotation Yrotation Xrotation
		JOINT LeftLeg
		{
			OFFSET 3.427654 -37.519855 -0.449580
			CHANNELS 3 Zrotation Yrotation Xrotation
			JOINT LeftFoot
			{
				OFFSET -1.359570 -39.796059 -4.369333
				CHANNELS 3 Zrotation Yrotation Xrotation
				JOINT LeftToe
				{
					OFFSET 2.635814 -5.579078 11.928840
					CHANNELS 3 Zrotation Yrotation Xrotation
					End Site
					{
						OFFSET 0.000000 0.000000 0.000000
					}
				}
			}
		}
	}
	JOINT RightUpLeg
	{
		OFFSET -6.767048 -9.052170 -0.431982
		CHANNELS 3 Zrotation Yrotation Xrotation
		JOINT RightLeg
		{
			OFFSET -3.829005 -38.256897 -0.885003
			CHANNELS 3 Zrotation Yrotation Xrotation
			JOINT RightFoot
			{
				OFFSET 1.577377 -39.841461 -4.231180
				CHANNELS 3 Zrotation Yrotation Xrotation
				JOINT RightToe
				{
					OFFSET -2.537174 -4.814398 12.334795
					CHANNELS 3 Zrotation Yrotation Xrotation
					End Site
					{
						OFFSET 0.000000 0.000000 0.000000
					}
				}
			}
		}
	}
	JOINT Spine
	{
		OFFSET -0.253288 10.896323 -2.669631
		CHANNELS 3 Zrotation Yrotation Xrotation
		JOINT Spine1
		{
			OFFSET 0.548704 13.518043 0.109247
			CHANNELS 3 Zrotation Yrotation Xrotation
			JOINT Spine2
			{
				OFFSET 0.145701 5.292222 2.542457
				CHANNELS 3 Zrotation Yrotation Xrotation
				JOINT Neck
				{
					OFFSET -0.277840 21.387037 -4.285703
					CHANNELS 3 Zrotation Yrotation Xrotation
					JOINT Head
					{
						OFFSET 0.515184 6.496960 5.134897
						CHANNELS 3 Zrotation Yrotation Xrotation
						End Site
						{
							OFFSET 0.000000 0.000000 0.000000
						}
					}
				}
				JOINT LeftShoulder
				{
					OFFSET 7.884473 12.174932 -3.408961
					CHANNELS 3 Zrotation Yrotation Xrotation
					JOINT LeftArm
					{
						OFFSET 9.097692 3.046888 -0.886815
						CHANNELS 3 Zrotation Yrotation Xrotation
						JOINT LeftForeArm
						{
							OFFSET 25.961220 -1.277207 -2.745643
							CHANNELS 3 Zrotation Yrotation Xrotation
							JOINT LeftHand
							{
								OFFSET 24.923361 0.898606 -0.117091
								CHANNELS 3 Zrotation Yrotation Xrotation
								End Site
								{
									OFFSET 0.000000 0.000000 0.000000
								}
							}
						}
					}
				}
				JOINT RightShoulder
				{
					OFFSET -8.175920 11.883285 -3.861528
					CHANNELS 3 Zrotation Yrotation Xrotation
					JOINT RightArm
					{
						OFFSET -9.601238 3.255117 -0.914307
						CHANNELS 3 Zrotation Yrotation Xrotation
						JOINT RightForeArm
						{
							OFFSET -25.374195 -1.332924 -2.140099
							CHANNELS 3 Zrotation Yrotation Xrotation
							JOINT RightHand
							{
								OFFSET -25.529810 0.777228 -0.555919
								CHANNELS 3 Zrotation Yrotation Xrotation
								End Site
								{
									OFFSET 0.000000 0.000000 0.000000
								}
							}
						}
					}
				}
			}
		}
	}
}
MOTION
Frames: 17
Frame Time: 0.033333
19.467606 19.121033 12.692728 -132.490326 -3.902669 168.699791 39.611600 39.906054 -14.677058 -15.020500 31.605796 83.600208 -5.670262 -7.861713 -29.779937 nan nan nan -11.436933 3.543099 2.516413 8.638457 11.694977 18.152033 5.811059 14.668961 -22.721452 nan nan nan -12.804588 -6.251918 7.458050 11.794188 -17.957207 -7.583820 8.612198 -7.727653 -1.007890 13.056476 25.224153 23.617260 4.521356 -0.841073 -39.241160 33.180824 -17.308518 0.989332 2.320079 -0.197179 -34.927450 36.708672 -14.949496 -26.339713 -4.412284 -22.777006 -17.948344 -21.372161 41.480317 -13.455044 26.308608 68.980707 -17.630271 -84.239353 67.137303 -64.015534 -12.180978 21.848116 -19.161096 
19.886715 19.140528 12.146370 -132.397080 -3.591950 168.198344 41.309278 40.485548 -13.256817 -14.685326 31.372558 84.329991 -5.879363 -8.160977 -29.883369 nan nan nan -11.196029 4.298310 3.229253 8.646376 12.447058 18.016354 5.922058 15.533057 -23.699577 nan nan nan -12.507926 -7.264534 7.356632 11.584180 -18.619174 -7.243131 8.364504 -6.939541 -1.394446 13.148456 26.102278 25.416589 4.867140 -0.642170 -39.827133 32.710682 -17.170957 1.329018 3.043292 0.305475 -34.511919 35.373204 -14.675387 -25.497529 -4.630469 -23.110614 -17.891553 -20.778153 42.776452 -12.214729 23.179106 70.119857 -20.305682 -81.467638 66.623832 -61.266153 -12.102535 22.064793 -19.466197 
20.250719 19.117180 11.619706 -132.168361 -3.346464 167.903224 42.995738 40.915184 -12.070220 -14.365875 31.389630 84.991936 -6.172534 -8.492186 -29.816209 nan nan nan -10.807421 5.103538 3.784954 8.656431 12.993277 17.732182 5.744733 16.152113 -24.631034 nan nan nan -12.813563 -7.110228 6.974188 11.768649 -18.375733 -7.018083 8.729212 -7.261139 -1.342512 13.476112 26.482844 26.320730 4.869232 -1.081427 -40.291138 32.958033 -17.885512 1.004244 2.776881 0.581125 -33.762890 34.886235 -13.417909 -24.749020 -5.264794 -24.171274 -18.503646 -21.930200 43.261994 -13.685109 25.721215 68.625932 -17.031255 -84.777846 65.489941 -66.425818 -11.262607 24.130064 -27.959949 
20.569622 19.048832 11.125834 -132.035917 -3.340070 167.519784 44.352833 41.296632 -11.068601 -14.515403 31.322190 85.398116 -6.425744 -8.162273 -29.711285 nan nan nan -10.570373 5.327252 4.520665 8.727597 14.313654 17.403055 5.556805 16.154031 -25.550359 nan nan nan -13.514488 -6.705892 7.341568 12.439224 -18.056173 -7.557659 8.971991 -7.714172 -1.090867 13.460610 25.914832 25.577486 4.538444 -0.978851 -39.555806 33.571865 -17.783789 1.670664 2.335755 -0.017320 -34.568433 34.040510 -12.840358 -23.585445 -3.017915 -23.975982 -19.564756 -22.104149 42.231480 -13.957112 24.635199 70.425367 -18.443793 -76.933863 65.676672 -55.557097 -14.807945 22.821918 -20.726320 
20.909830 19.007235 10.719579 -132.077247 -3.386523 167.250270 45.344480 41.505072 -10.223406 -14.030504 31.431885 86.113346 -6.638490 -8.330037 -29.675336 nan nan nan -10.508423 5.553097 5.225827 8.618922 15.200454 17.037256 5.544772 16.433170 -26.383643 nan nan nan -13.366052 -7.241165 7.457296 12.361075 -18.461725 -7.896140 8.764929 -7.437558 -1.104086 13.267397 26.158623 26.003315 4.567936 -0.949595 -39.692751 33.579206 -17.460762 1.745583 2.535623 -0.154520 -34.463585 33.254329 -12.388200 -22.989611 -3.815078 -24.227816 -18.843486 -21.852821 42.477015 -13.452707 23.737522 71.705738 -19.190829 -75.038333 64.929121 -53.679958 -13.599540 22.945436 -20.068616 
21.231657 18.979626 10.352504 -131.793977 -3.509141 167.055016 46.380667 41.787973 -9.807083 -13.635275 31.365036 86.879519 -6.866453 -8.369441 -29.668462 nan nan nan -10.052903 5.773128 5.968977 8.500599 16.080912 16.503382 5.584551 16.400574 -27.280134 nan nan nan -13.404833 -7.110587 7.613402 12.624325 -18.291861 -8.835814 8.892054 -7.673985 -0.568402 12.923869 26.009886 25.893575 4.567926 -1.107728 -39.777252 33.965464 -17.565345 1.766934 2.161004 -0.825360 -34.565669 32.881550 -11.503774 -22.268683 -3.758611 -24.317086 -19.251184 -22.303718 42.021006 -13.715362 23.249834 72.112809 -19.731297 -73.447831 64.569655 -51.921534 -13.251848 22.784154 -20.858941 
21.515772 18.944883 10.017533 -131.648970 -3.631528 166.649409 47.360914 41.959517 -9.132359 -13.350016 31.239088 87.547815 -6.894922 -8.353635 -29.838624 nan nan nan -9.793943 5.967303 6.954358 8.442194 16.821296 15.875973 5.448373 16.391575 -28.263745 nan nan nan -13.324759 -7.248472 7.632532 12.530675 -18.488159 -9.065298 8.802894 -7.570451 -0.326645 13.067427 26.584245 26.052165 4.507313 -1.128418 -39.815386 34.284311 -17.786365 1.739967 2.055057 -1.004751 -34.648813 32.283247 -10.934754 -21.675473 -3.687266 -24.531557 -19.388557 -22.926380 42.134614 -13.966268 22.670467 72.262438 -20.620140 -72.338480 64.182824 -50.917616 -12.837588 22.878635 -21.191517 
21.685535 18.885040 9.722680 -131.323196 -3.890636 166.168073 48.219791 42.007327 -8.673751 -13.178646 31.055112 88.061448 -6.658919 -8.074738 -29.863526 nan nan nan -9.339999 6.097903 8.121376 8.392519 17.554639 14.969416 5.187507 16.042862 -29.035871 nan nan nan -13.833899 -6.111436 8.344964 13.056280 -17.574799 -10.242697 9.273213 -8.452165 0.094145 13.325087 25.702493 25.091262 4.378522 -1.680100 -38.614230 35.064599 -18.186567 2.301668 1.154155 -2.563708 -35.398565 32.541566 -9.859305 -21.559296 -3.103353 -24.058217 -20.546361 -24.148389 40.447812 -15.046292 24.752367 71.951260 -19.223116 -71.706934 64.043034 -49.983331 -12.467163 22.459291 -21.818278 
21.864471 18.850355 9.491103 -131.406729 -4.157997 165.893569 48.408963 42.029562 -8.380037 -12.760919 30.960977 88.592688 -6.777947 -8.079617 -29.749785 nan nan nan -9.416521 6.066617 9.020599 8.154065 17.745157 14.122196 5.235939 16.177681 -29.507618 nan nan nan -13.370219 -6.654533 8.536767 12.739265 -17.993214 -11.068486 8.820839 -8.088187 0.325434 13.042375 26.094357 25.909939 4.823918 -1.612068 -38.592591 34.687745 -18.432943 2.297153 1.580856 -2.278085 -34.774818 31.664087 -9.590429 -20.679942 -2.955198 -24.711691 -20.988038 -23.722405 41.174990 -15.101691 24.960883 72.164563 -18.889756 -69.753556 63.736672 -48.105862 -12.736695 22.461923 -21.704366 
22.000429 18.785511 9.361050 -131.381529 -4.570856 165.702837 48.254452 42.057871 -8.585659 -12.287273 30.807615 89.181801 -6.899716 -7.868445 -29.790844 nan nan nan -9.447607 5.814260 9.750968 7.959797 17.799918 13.337610 5.348545 16.058957 -30.046269 nan nan nan -12.733352 -7.332414 8.968525 12.458905 -18.510104 -12.424333 8.328156 -7.685104 0.816969 12.670284 26.645162 26.174137 5.231769 -1.284244 -38.392777 34.492046 -18.458953 2.223187 1.908327 -2.144328 -34.326268 30.644523 -9.522096 -20.106131 -2.155861 -25.285169 -21.765212 -23.559453 41.852505 -15.034788 24.492204 72.443318 -19.524455 -67.981247 63.611810 -46.567031 -13.024789 22.377324 -21.323118 
22.129971 18.700064 9.318556 -131.300227 -4.932720 165.491855 48.153388 42.039122 -8.817663 -11.977696 30.757096 89.700099 -6.873360 -7.548610 -29.969979 nan nan nan -9.443361 5.512143 10.402150 7.824424 17.813646 12.710125 5.356013 15.736367 -30.470025 nan nan nan -12.769261 -7.096936 9.385223 12.681803 -18.514016 -13.425939 8.285678 -7.797183 1.339247 12.345360 26.564162 25.449353 5.140977 -1.299152 -37.769781 34.738412 -18.192749 2.181048 1.778892 -3.111322 -34.514026 29.937545 -9.282760 -20.700713 -0.455233 -25.061078 -22.867047 -23.484567 41.452828 -15.367972 25.001018 73.052823 -18.804293 -65.821872 63.036044 -44.500341 -13.400594 22.291773 -20.567761 
22.253469 18.632553 9.309986 -131.302229 -5.203111 165.399622 47.961436 42.031427 -9.058461 -11.713188 30.764955 90.151591 -6.828016 -7.593190 -30.245081 nan nan nan -9.458126 5.326366 10.811343 7.608289 17.635401 12.361555 5.460211 15.477998 -30.769918 nan nan nan -12.776789 -6.947929 9.723813 12.853779 -18.464642 -14.209959 8.291065 -7.878191 1.647202 12.029220 26.490110 25.122566 5.110143 -1.526045 -37.667491 34.785266 -17.965827 2.007282 1.633135 -3.554901 -34.220233 29.624623 -8.948166 -20.126424 -0.748161 -25.430428 -22.508660 -23.318063 41.282423 -15.690742 25.765207 73.497455 -17.667764 -64.253535 62.491243 -42.933284 -13.496674 22.374121 -20.225349 
22.336599 18.578526 9.376355 -131.216128 -5.514658 165.245463 47.685617 41.948000 -9.462108 -11.533233 30.713297 90.513448 -6.636480 -7.412791 -30.510844 nan nan nan -9.305991 5.088575 11.110941 7.368367 17.391573 12.349701 5.546360 14.965622 -31.077031 nan nan nan -12.849807 -6.658912 10.042455 13.017805 -18.214683 -14.906431 8.336948 -8.080911 2.299408 11.438807 26.270027 24.211014 5.031313 -1.776286 -37.557816 35.028622 -17.820389 1.837045 1.236724 -4.022722 -34.292148 29.607082 -9.079577 -20.807534 -0.662136 -24.931025 -22.617186 -23.212231 40.844951 -16.021231 24.940449 73.512682 -18.278584 -62.893101 62.643302 -41.781880 -13.029738 21.864483 -19.556025 
22.408037 18.541245 9.498722 -131.413510 -5.719635 165.155002 47.136983 41.768957 -9.730333 -11.127367 30.810283 90.761632 -6.362331 -7.243995 -30.631939 nan nan nan -9.441522 4.931700 11.201706 7.071394 16.945884 12.523828 5.568479 14.635315 -31.468305 nan nan nan -12.499517 -7.239805 10.103448 12.674847 -18.550935 -14.782447 7.925222 -7.548410 2.356390 11.102216 26.889646 23.699031 4.843688 -2.044523 -36.991203 35.073136 -17.177423 1.552789 1.311740 -4.033124 -34.020319 29.147682 -9.543728 -21.339776 -1.120766 -24.890050 -21.838795 -22.692843 41.155789 -15.634902 23.234836 74.256656 -19.630838 -62.027839 62.358230 -41.004577 -12.199012 21.478642 -18.360854 
22.447056 18.492294 9.660017 -131.410850 -5.996399 165.309384 46.435610 41.615635 -10.519386 -10.739106 30.992846 90.980344 -6.089754 -6.982354 -30.764403 nan nan nan -9.351647 4.921324 10.995382 6.906453 16.304663 12.662110 5.422260 14.264188 -31.936889 nan nan nan -12.573601 -7.082045 10.194944 12.727058 -18.341738 -14.777948 8.091735 -7.630398 1.847864 11.080552 26.615836 23.707950 5.151908 -2.046018 -37.667835 35.334985 -17.152680 1.715187 0.746611 -4.496087 -33.833861 29.122897 -9.294099 -21.200655 -1.060303 -25.525449 -21.989488 -23.239673 40.592184 -15.934110 24.937080 74.364528 -17.985726 -62.384085 61.934643 -40.640789 -12.272530 21.523519 -19.320952 
22.503164 18.467331 9.834705 -131.411629 -6.203326 165.468127 45.850740 41.566802 -11.254290 -10.542417 31.130954 91.111875 -5.872089 -6.620289 -30.863564 nan nan nan -9.281692 4.905000 10.763716 6.820545 15.886646 12.793455 5.179792 13.815612 -32.382013 nan nan nan -12.609016 -6.842504 9.725155 12.598363 -18.190565 -14.217473 8.125150 -7.742902 1.502763 11.079254 26.084011 23.911950 5.118521 -1.994835 -37.952886 35.474097 -17.543118 1.939058 0.371630 -4.402444 -33.828834 29.168289 -9.221203 -21.026223 -1.197542 -26.036490 -21.987164 -24.093044 40.338630 -16.415404 26.677966 74.051447 -16.490645 -63.424631 61.405071 -41.188753 -12.383445 21.779172 -20.142035 
22.578257 18.433928 9.994902 -131.518715 -6.417588 165.524193 45.272697 41.507943 -11.831169 -10.353746 31.171223 91.214146 -5.645734 -6.304252 -30.961189 nan nan nan -9.379006 4.763247 10.644345 6.747832 15.567009 12.909584 4.929666 13.563493 -32.842292 nan nan nan -12.136554 -7.413136 9.052537 12.017747 -18.755535 -12.953443 7.787913 -7.124043 0.899982 11.132585 26.310146 24.515692 4.926294 -1.991437 -38.458165 35.393980 -17.751413 1.805183 0.375368 -3.418514 -33.598498 28.758234 -9.839444 -21.102791 -1.747532 -26.498317 -21.360231 -24.973285 41.232025 -16.500027 25.457240 73.728006 -18.195914 -64.476287 61.071940 -42.693899 -11.806017 21.791527 -20.342412 
